<svg height="100%" width="100%" id="svg" viewBox="0 0 1440 400" xmlns="http://www.w3.org/2000/svg" class="transition duration-300 ease-in-out delay-150"><defs><linearGradient id="gradient"><stop offset="5%" stop-color="#3f3d5644"></stop><stop offset="95%" stop-color="#8ed1fc44"></stop></linearGradient></defs><path d="M 0,400 C 0,400 0,80 0,80 C 33.1832276083584,98.61069224566856 66.3664552167168,117.2213844913371 96,109 C 125.6335447832832,100.7786155086629 151.71740674149117,65.72515428032011 181,62 C 210.28259325850883,58.27484571967989 242.7639178173185,85.87799838738246 269,90 C 295.2360821826815,94.12200161261754 315.2269219892347,74.7628521701501 345,69 C 374.7730780107653,63.237147829849896 414.32839422574284,71.07059293201718 450,68 C 485.67160577425716,64.92940706798282 517.4595011077942,50.95477610178118 546,60 C 574.5404988922058,69.04522389821882 599.8336013430809,101.1103026608581 628,102 C 656.1663986569191,102.8896973391419 687.2060935198822,72.60401325478645 718,61 C 748.7939064801178,49.39598674521355 779.3420245773902,56.47364431999611 809,71 C 838.6579754226098,85.52635568000389 867.4258081705564,107.50140946522913 901,107 C 934.5741918294436,106.49859053477087 972.9547427403841,83.52071781908738 1000,80 C 1027.045257259616,76.47928218091262 1042.755220867908,92.41571925842133 1071,94 C 1099.244779132092,95.58428074157867 1140.0243737879834,82.81640514722729 1171,79 C 1201.9756262120166,75.18359485277271 1223.1472839801581,80.31866015266957 1254,83 C 1284.8527160198419,85.68133984733043 1325.3864902913833,85.90895424209441 1358,85 C 1390.6135097086167,84.09104575790559 1415.3067548543083,82.0455228789528 1440,80 C 1440,80 1440,400 1440,400 Z" stroke="none" stroke-width="0" fill="url(#gradient)" class="transition-all duration-300 ease-in-out delay-150" transform="rotate(-180 720 200)"></path><defs><linearGradient id="gradient"><stop offset="5%" stop-color="#3f3d5666"></stop><stop offset="95%" stop-color="#8ed1fc66"></stop></linearGradient></defs><path d="M 0,400 C 0,400 0,160 0,160 C 31.07136121760451,150.00165691189844 62.14272243520902,140.00331382379687 88,139 C 113.85727756479098,137.99668617620313 134.5004714767684,145.98840161671092 165,154 C 195.4995285232316,162.01159838328908 235.8553916577174,170.04307970935943 270,168 C 304.1446083422826,165.95692029064057 332.0779618923618,153.83927954585138 360,144 C 387.9220381076382,134.16072045414862 415.83276077283546,126.599802107235 450,131 C 484.16723922716454,135.400197892765 524.5909950162963,151.76151202520862 552,154 C 579.4090049837037,156.23848797479138 593.8032591619789,144.35414979193055 621,150 C 648.1967408380211,155.64585020806945 688.1959683357879,178.82188880706923 717,182 C 745.8040316642121,185.17811119293077 763.4128674948693,168.35829497979256 796,153 C 828.5871325051307,137.64170502020744 876.1525616847347,123.74493127376047 911,134 C 945.8474383152653,144.25506872623953 967.9768857661926,178.66197992516558 995,183 C 1022.0231142338074,187.33802007483442 1053.9398952504953,161.60714902557717 1080,153 C 1106.0601047495047,144.39285097442283 1126.2635332318262,152.90942397252573 1154,150 C 1181.7364667681738,147.09057602747427 1217.0059718222005,132.75515508431997 1247,141 C 1276.9940281777995,149.24484491568003 1301.7125794793712,180.0699556901943 1333,187 C 1364.2874205206288,193.9300443098057 1402.1437102603145,176.96502215490284 1440,160 C 1440,160 1440,400 1440,400 Z" stroke="none" stroke-width="0" fill="url(#gradient)" class="transition-all duration-300 ease-in-out delay-150" transform="rotate(-180 720 200)"></path><defs><linearGradient id="gradient"><stop offset="5%" stop-color="#3f3d5688"></stop><stop offset="95%" stop-color="#8ed1fc88"></stop></linearGradient></defs><path d="M 0,400 C 0,400 0,240 0,240 C 31.200623864978738,229.80855741658888 62.401247729957475,219.61711483317777 91,228 C 119.59875227004252,236.38288516682223 145.59563294514885,263.3400980838779 174,266 C 202.40436705485115,268.6599019161221 233.2162204894471,247.0224928313108 266,242 C 298.7837795105529,236.9775071686892 333.5394850970627,248.56993059087904 359,254 C 384.4605149029373,259.43006940912096 400.62583912230207,258.697784805173 434,247 C 467.37416087769793,235.30221519482703 517.9571584137287,212.63893018842904 549,211 C 580.0428415862713,209.36106981157096 591.5455272227829,228.74649444111077 620,237 C 648.4544727772171,245.25350555888923 693.8607326951397,242.3750920471281 732,237 C 770.1392673048603,231.6249079528719 801.0115419966576,223.75313737037678 825,220 C 848.9884580033424,216.24686262962322 866.09309931823,216.61235847136473 896,224 C 925.90690068177,231.38764152863527 968.6160607304228,245.79742874416428 999,253 C 1029.3839392695772,260.2025712558357 1047.44265776008,260.19792655197807 1077,253 C 1106.55734223992,245.8020734480219 1147.613308229257,231.4108650479234 1177,223 C 1206.386691770743,214.5891349520766 1224.1041093228923,212.15861325632832 1250,216 C 1275.8958906771077,219.84138674367168 1309.9702544791737,229.95468192676333 1343,235 C 1376.0297455208263,240.04531807323667 1408.0148727604133,240.02265903661834 1440,240 C 1440,240 1440,400 1440,400 Z" stroke="none" stroke-width="0" fill="url(#gradient)" class="transition-all duration-300 ease-in-out delay-150" transform="rotate(-180 720 200)"></path><defs><linearGradient id="gradient"><stop offset="5%" stop-color="#3f3d56ff"></stop><stop offset="95%" stop-color="#8ed1fcff"></stop></linearGradient></defs><path d="M 0,400 C 0,400 0,320 0,320 C 37.420448314762226,328.6963075801086 74.84089662952445,337.39261516021725 102,343 C 129.15910337047555,348.60738483978275 146.05686179666444,351.1258469392395 173,346 C 199.94313820333556,340.8741530607605 236.93165618381772,328.1039970828246 271,327 C 305.0683438161823,325.8960029171754 336.2165134680646,336.458164729462 366,338 C 395.7834865319354,339.541835270538 424.2022899439239,332.0633439993275 448,323 C 471.7977100560761,313.9366560006725 490.97432675623986,303.28845927322794 526,296 C 561.0256732437601,288.71154072677206 611.9004030311168,284.78281890776077 645,295 C 678.0995969688832,305.21718109223923 693.424061119293,329.58026509572903 716,330 C 738.575938880707,330.41973490427097 768.403352491711,306.8961207093232 797,303 C 825.596647508289,299.1038792906768 852.962528913863,314.8352520669783 888,328 C 923.037471086137,341.1647479330217 965.7465318528364,351.76287102276376 995,348 C 1024.2534681471636,344.23712897723624 1040.0513436747924,326.11326384196667 1066,313 C 1091.9486563252076,299.88673615803333 1128.0480934479936,291.7840736093697 1164,298 C 1199.9519065520064,304.2159263906303 1235.7562825332325,324.7504417205543 1265,326 C 1294.2437174667675,327.2495582794457 1316.9267764190765,309.21415950841305 1345,305 C 1373.0732235809235,300.78584049158695 1406.5366117904618,310.39292024579345 1440,320 C 1440,320 1440,400 1440,400 Z" stroke="none" stroke-width="0" fill="url(#gradient)" class="transition-all duration-300 ease-in-out delay-150" transform="rotate(-180 720 200)"></path></svg>
