<svg version="1.0" xmlns="http://www.w3.org/2000/svg" fill="currentColor" viewBox="0 0 712 712"
 preserveAspectRatio="xMidYMid meet">

<g transform="translate(0,712) scale(0.1,-0.1)"
fill="currentColor" stroke="none">
<path d="M952 6870 c-92 -24 -212 -87 -280 -146 -151 -132 -242 -350 -227
-541 22 -294 194 -515 470 -609 73 -24 97 -27 268 -32 103 -2 187 -9 187 -14
0 -5 -9 -27 -21 -49 -38 -75 -107 -263 -138 -374 -97 -353 -113 -727 -46
-1090 35 -188 109 -425 174 -553 42 -84 49 -79 -106 -85 -232 -8 -352 -56
-494 -197 -137 -136 -199 -283 -199 -472 0 -124 13 -182 61 -287 49 -105 100
-172 182 -239 80 -64 166 -108 265 -133 75 -19 131 -19 2582 -17 l2505 3 84
29 c303 106 493 409 451 718 -23 170 -74 272 -195 394 -75 76 -104 98 -175
132 -117 56 -205 72 -395 72 -85 0 -155 4 -155 9 0 5 16 44 36 87 51 112 111
291 144 429 112 469 78 978 -95 1421 -24 62 -53 130 -64 153 -12 22 -21 44
-21 49 0 5 62 12 138 15 154 6 230 24 347 85 95 50 217 172 268 268 103 197
103 439 0 637 -57 109 -183 232 -293 286 -158 77 55 71 -2708 70 -2403 0
-2479 -1 -2550 -19z m293 -175 c188 -49 340 -221 364 -410 14 -116 -13 -246
-69 -330 -42 -64 -133 -144 -203 -179 -390 -196 -828 189 -686 603 51 148 187
274 340 315 72 19 181 20 254 1z m2543 5 c502 -54 957 -265 1331 -616 615
-579 849 -1491 591 -2299 -36 -112 -100 -267 -142 -347 l-31 -58 -660 0 -660
0 69 49 c217 153 389 383 473 637 147 442 27 948 -304 1280 -144 144 -297 241
-484 306 -189 65 -110 61 -1298 65 -596 2 -1083 6 -1083 9 0 3 21 29 46 57 52
59 126 206 145 287 7 30 12 98 12 150 0 162 -49 299 -154 428 l-50 62 1051 0
c656 0 1087 -4 1148 -10z m2241 -5 c127 -33 254 -131 313 -241 106 -197 66
-440 -98 -593 -116 -109 -219 -141 -454 -141 l-145 0 -50 77 c-224 346 -569
650 -959 844 l-140 69 740 0 c609 0 748 -3 793 -15z m-3164 -1182 c-289 -193
-491 -502 -550 -840 -19 -110 -19 -316 0 -426 56 -319 226 -599 485 -793 99
-75 292 -173 400 -203 186 -51 178 -51 1291 -51 572 0 1039 -3 1039 -6 0 -3
-20 -29 -45 -57 -56 -64 -118 -181 -141 -267 -23 -85 -23 -242 -1 -330 23 -89
76 -193 136 -267 l51 -63 -1055 0 c-1051 0 -1151 3 -1330 36 -458 84 -885 316
-1216 662 -162 168 -275 328 -382 540 -114 223 -187 457 -223 708 -23 162 -23
450 0 609 34 235 114 491 217 698 l39 77 662 0 663 0 -40 -27z m960 -7 c307
-79 560 -285 700 -569 75 -152 105 -272 112 -447 4 -113 2 -152 -16 -238 -78
-378 -330 -670 -696 -807 -132 -49 -260 -68 -415 -62 -146 7 -250 30 -377 85
-132 57 -225 122 -343 241 -160 162 -245 320 -290 542 -19 88 -21 126 -17 244
6 162 27 259 84 391 78 179 225 358 382 464 129 87 304 156 457 180 106 16
307 5 419 -24z m-2278 -2414 c206 -309 502 -579 838 -764 55 -30 131 -68 168
-84 l68 -29 -737 -3 c-810 -2 -803 -3 -908 58 -164 94 -256 250 -256 434 0
135 38 232 129 330 57 60 113 99 182 127 81 32 120 37 289 38 l155 0 72 -107z
m4539 97 c167 -30 324 -163 380 -321 95 -269 -65 -571 -341 -643 -175 -45
-368 12 -491 146 -141 154 -169 378 -72 562 47 87 130 168 220 211 109 52 195
65 304 45z"/>
<path d="M1450 785 l0 -295 45 0 45 0 0 113 c0 110 1 114 29 147 16 19 31 33
34 30 3 -3 34 -61 70 -130 89 -169 83 -162 144 -158 l52 3 -99 180 c-55 99
-100 185 -100 192 0 6 21 37 47 70 26 32 62 77 81 101 l34 42 -55 0 -56 0 -88
-112 -88 -113 -3 113 -3 112 -44 0 -45 0 0 -295z"/>
<path d="M3980 1035 l0 -45 85 0 85 0 0 -250 0 -250 50 0 50 0 0 250 0 250 85
0 85 0 0 45 0 45 -220 0 -220 0 0 -45z"/>
<path d="M2325 915 c-22 -8 -50 -26 -62 -40 l-23 -26 0 35 0 36 -85 0 -85 0 0
-40 0 -40 45 0 45 0 0 -135 0 -135 -45 0 -45 0 0 -40 0 -40 150 0 150 0 0 40
0 40 -60 0 -60 0 0 90 c0 63 5 100 16 121 16 32 66 59 109 59 23 0 25 -4 25
-45 l0 -45 45 0 45 0 0 79 c0 88 1 87 -77 96 -30 3 -63 0 -88 -10z"/>
<path d="M3527 920 c-16 -5 -35 -14 -43 -21 -11 -9 -14 -8 -14 5 0 12 -10 16
-45 16 l-45 0 0 -295 c0 -162 2 -295 5 -295 3 0 24 9 45 20 l40 20 0 76 0 76
23 -15 c92 -60 226 -1 258 115 28 104 -9 236 -77 279 -37 23 -107 32 -147 19z
m103 -108 c54 -54 50 -177 -7 -221 -34 -27 -92 -27 -127 0 -25 19 -26 25 -26
114 0 89 1 95 26 114 40 32 98 28 134 -7z"/>
<path d="M4795 924 c-56 -14 -115 -36 -115 -43 0 -11 21 -71 25 -71 1 0 22 9
46 20 55 25 120 26 148 3 12 -10 24 -35 28 -57 6 -38 5 -39 -18 -32 -91 25
-169 14 -220 -32 -60 -54 -47 -165 24 -207 43 -26 142 -27 180 -3 32 22 37 22
37 3 0 -11 12 -15 46 -15 l46 0 -4 168 c-4 186 -13 218 -69 248 -32 16 -119
27 -154 18z m109 -254 c40 -15 36 -64 -6 -90 -67 -41 -158 -17 -158 40 0 18 8
34 22 44 25 18 103 21 142 6z"/>
<path d="M2729 873 c10 -27 46 -123 81 -215 l62 -167 -31 -80 c-17 -44 -31
-83 -31 -86 0 -3 21 -5 47 -3 l46 3 104 275 c57 151 106 285 109 298 6 20 3
22 -39 22 l-45 0 -51 -142 c-29 -79 -55 -150 -58 -158 -4 -12 -59 128 -106
268 -10 30 -13 32 -59 32 l-48 0 19 -47z"/>
<path d="M5302 888 c61 -82 118 -166 118 -175 0 -6 -13 -28 -28 -49 -15 -21
-50 -69 -76 -107 l-48 -67 55 0 54 0 50 74 50 75 52 -75 52 -74 50 0 c27 0 49
3 49 6 0 3 -32 51 -70 106 -39 54 -71 103 -73 107 -1 4 28 51 66 104 37 53 67
99 67 102 0 3 -22 5 -49 5 -49 0 -49 0 -96 -66 l-47 -65 -46 65 -46 66 -54 0
-54 0 24 -32z"/>
</g>
</svg>
