<?xml version="1.0" standalone="no"?>
<!DOCTYPE svg PUBLIC "-//W3C//DTD SVG 20010904//EN"
 "http://www.w3.org/TR/2001/REC-SVG-20010904/DTD/svg10.dtd">
<svg version="1.0" xmlns="http://www.w3.org/2000/svg"
 width="700.000000pt" height="700.000000pt" viewBox="0 0 700.000000 700.000000"
 preserveAspectRatio="xMidYMid meet">
<metadata>
Created by potrace 1.14, written by Peter Selinger 2001-2017
</metadata>
<g transform="translate(0.000000,700.000000) scale(0.100000,-0.100000)"
fill="#000000" stroke="none">
<path d="M750 6170 c-108 -9 -210 -48 -324 -124 -205 -137 -329 -388 -313
-635 8 -119 27 -193 77 -296 90 -189 280 -339 497 -395 23 -6 127 -14 232 -19
105 -4 193 -10 196 -13 2 -2 -13 -46 -35 -96 -272 -630 -298 -1302 -76 -1949
25 -70 60 -162 80 -203 21 -43 32 -78 27 -83 -5 -5 -73 -13 -151 -18 -227 -14
-343 -55 -468 -164 -125 -109 -195 -208 -244 -342 -29 -83 -37 -320 -13 -413
54 -209 198 -386 390 -481 166 -81 -127 -74 2965 -74 l2755 0 89 34 c231 90
390 255 468 487 20 60 23 88 22 214 0 129 -3 154 -27 225 -39 116 -90 197
-192 300 -98 98 -175 146 -300 185 -55 17 -112 24 -270 31 -110 5 -203 11
-207 12 -4 1 13 48 37 104 97 227 175 511 206 758 17 129 17 491 0 618 -32
250 -109 533 -205 752 l-43 100 36 7 c20 4 95 11 167 17 214 17 341 74 485
217 39 38 86 93 106 122 84 127 127 330 104 489 -23 165 -77 282 -185 399
-100 110 -248 202 -363 225 -44 9 -715 13 -2748 14 -1479 1 -2728 -1 -2775 -5z
m271 -217 c30 -10 88 -40 129 -68 203 -137 287 -386 209 -619 -52 -154 -203
-292 -368 -338 -221 -61 -461 34 -593 236 -109 168 -109 394 0 562 78 121 223
221 352 243 73 13 205 5 271 -16z m2878 -2 c332 -58 610 -159 882 -322 670
-400 1095 -1059 1185 -1835 22 -189 15 -499 -16 -673 -42 -238 -127 -497 -229
-701 l-38 -75 -718 -3 -719 -2 85 61 c285 208 494 541 554 885 19 111 20 346
0 455 -37 213 -136 447 -260 610 -126 168 -338 341 -516 423 -106 48 -244 94
-320 106 -40 7 -506 14 -1232 19 -642 4 -1170 11 -1173 14 -3 3 15 31 40 62
51 62 138 234 155 307 6 26 11 96 11 156 0 178 -47 320 -150 456 -26 35 -51
69 -55 76 -6 10 236 11 1191 7 1171 -4 1202 -5 1323 -26z m2224 20 c107 -7
124 -11 193 -46 190 -93 304 -270 305 -470 1 -152 -44 -265 -146 -373 -125
-133 -223 -168 -498 -178 l-172 -6 -60 93 c-237 370 -593 684 -1030 911 l-150
78 720 -1 c396 0 773 -4 838 -8z m-3378 -1305 c-290 -196 -506 -522 -582 -876
-25 -121 -25 -420 1 -540 80 -370 292 -682 596 -880 88 -57 269 -143 355 -169
180 -55 150 -54 1387 -60 630 -3 1150 -9 1154 -14 4 -4 -4 -20 -18 -35 -73
-79 -150 -231 -174 -342 -20 -92 -14 -268 11 -350 26 -84 83 -193 142 -270
l53 -70 -492 1 c-1048 2 -1957 16 -2057 33 -408 68 -806 247 -1141 514 -127
101 -317 294 -413 419 -282 369 -460 828 -498 1283 -14 158 -6 431 16 570 35
226 117 492 215 698 l59 122 718 0 718 0 -50 -34z m980 12 c267 -39 548 -208
719 -431 176 -230 248 -445 249 -742 1 -142 -2 -171 -25 -256 -105 -387 -337
-657 -699 -812 -166 -71 -219 -81 -449 -81 -228 0 -276 9 -447 78 -291 119
-564 405 -662 693 -59 176 -78 391 -50 590 39 288 249 613 503 778 149 97 345
174 497 194 81 11 255 6 364 -11z m-2406 -2655 c273 -401 639 -711 1086 -920
l70 -33 -830 3 c-934 3 -856 -4 -986 83 -230 153 -307 453 -177 696 35 67 131
167 194 204 114 67 184 81 406 83 l157 1 80 -117z m4951 107 c130 -21 273
-110 355 -221 179 -243 110 -592 -149 -761 -198 -129 -479 -100 -655 66 -217
205 -223 545 -12 757 75 75 178 133 275 154 76 17 105 17 186 5z"/>
</g>
</svg>
